<svg width="29" height="23" viewBox="0 0 29 23" fill="none" xmlns="http://www.w3.org/2000/svg">
<path d="M10.1574 0.636719L11.6742 3.43071C10.8226 4.63596 10.0243 5.97817 9.27917 7.45735C8.58727 8.93652 8.18809 10.4705 8.08165 12.0592L12.4726 12.881V22.3312H0.257812V15.5928C0.257812 11.7031 1.136 8.58042 2.89237 6.2247C4.70196 3.8142 7.12362 1.95154 10.1574 0.636719ZM25.9647 0.636719L27.4816 3.43071C26.63 4.63596 25.8316 5.97817 25.0865 7.45735C24.3946 8.93652 23.9954 10.4705 23.889 12.0592L28.2799 12.881V22.3312H16.0651V15.5928C16.0651 11.7031 16.9433 8.58042 18.6997 6.2247C20.5093 3.8142 22.931 1.95154 25.9647 0.636719Z" fill="#EDA440"/>
</svg>
