<svg width="32" height="31" viewBox="0 0 32 31" fill="none" xmlns="http://www.w3.org/2000/svg">
<path d="M17.0121 1.62781L20.3771 9.30281C20.5037 9.59161 20.7055 9.84114 20.9615 10.0254C21.2174 10.2096 21.518 10.3218 21.8321 10.3503L30.0296 11.0853C30.9571 11.2203 31.3271 12.3578 30.6546 13.0128L24.4796 18.2003C23.9796 18.6203 23.7521 19.2803 23.8896 19.9178L25.6846 28.3203C25.8421 29.2428 24.8746 29.9478 24.0446 29.5103L16.8896 25.3203C16.6198 25.1618 16.3125 25.0783 15.9996 25.0783C15.6867 25.0783 15.3794 25.1618 15.1096 25.3203L7.9546 29.5078C7.1271 29.9428 6.1571 29.2403 6.3146 28.3178L8.1096 19.9153C8.2446 19.2778 8.0196 18.6178 7.5196 18.1978L1.3421 13.0153C0.672096 12.3628 1.0421 11.2228 1.9671 11.0878L10.1646 10.3528C10.4787 10.3243 10.7793 10.2121 11.0352 10.0279C11.2912 9.84364 11.493 9.59411 11.6196 9.30531L14.9846 1.63031C15.4021 0.790313 16.5971 0.790313 17.0121 1.62781Z" fill="#FDD835"/>
<path d="M16.773 9.52112L16.203 4.10586C16.1805 3.80422 16.1155 3.28711 16.6205 3.28711C17.0205 3.28711 17.238 4.08432 17.238 4.08432L18.948 8.43184C19.593 10.0861 19.328 10.6535 18.7055 10.9886C17.9905 11.3717 16.9355 11.0724 16.773 9.52112Z" fill="#FFFF8D"/>
<path d="M23.8201 17.1195L28.7251 13.4543C28.9676 13.2604 29.4051 12.9515 29.0551 12.5996C28.7776 12.3219 28.0276 12.7217 28.0276 12.7217L23.7351 14.3281C22.4551 14.7518 21.6051 15.3791 21.5301 16.1691C21.4326 17.2225 22.4201 18.034 23.8201 17.1195Z" fill="#F4B400"/>
</svg>
