<svg width="26" height="24" viewBox="0 0 26 24" fill="none" xmlns="http://www.w3.org/2000/svg">
<path d="M18.3568 8.31375C18.2471 8.04406 18.079 7.79917 17.8634 7.59486C17.6478 7.39055 17.3894 7.23134 17.105 7.1275C16.7134 6.98991 16.2998 6.91718 15.8822 6.9125C15.1877 6.8825 14.9795 6.875 13.2204 6.875C11.4612 6.875 11.253 6.8825 10.5586 6.9125C10.1406 6.91704 9.72648 6.98976 9.33444 7.1275C9.05015 7.23163 8.79199 7.39109 8.57661 7.59562C8.36123 7.80015 8.1934 8.0452 8.08393 8.315C7.93889 8.68649 7.86222 9.07887 7.85729 9.475C7.82566 10.1337 7.81775 10.3312 7.81775 12C7.81775 13.6687 7.82566 13.8662 7.85729 14.525C7.86207 14.9215 7.93874 15.3144 8.08393 15.6862C8.1937 15.9559 8.3618 16.2008 8.57741 16.4051C8.79302 16.6094 9.05135 16.7687 9.33576 16.8725C9.72738 17.0101 10.141 17.0828 10.5586 17.0875C11.253 17.1175 11.4612 17.1237 13.2204 17.1237C14.9795 17.1237 15.1877 17.1175 15.8822 17.0862C16.3001 17.0821 16.7142 17.0098 17.1063 16.8725C17.3906 16.7684 17.6488 16.6089 17.8642 16.4044C18.0795 16.1999 18.2474 15.9548 18.3568 15.685C18.5019 15.3135 18.5786 14.9211 18.5835 14.525C18.6151 13.8662 18.6217 13.6687 18.6217 12C18.6217 10.3312 18.6151 10.1337 18.5822 9.475C18.5778 9.07852 18.5016 8.68571 18.3568 8.31375ZM13.2204 15.21C12.5511 15.21 11.8969 15.0217 11.3404 14.669C10.7839 14.3163 10.3502 13.815 10.0941 13.2284C9.83796 12.6419 9.77095 11.9964 9.90152 11.3738C10.0321 10.7511 10.3544 10.1791 10.8276 9.73019C11.3009 9.28126 11.9038 8.97554 12.5602 8.85168C13.2166 8.72782 13.897 8.79139 14.5153 9.03435C15.1337 9.2773 15.6622 9.68874 16.034 10.2166C16.4058 10.7445 16.6043 11.3651 16.6043 12C16.6043 12.8513 16.2478 13.6678 15.6132 14.2698C14.9786 14.8718 14.1179 15.21 13.2204 15.21ZM16.7374 9.41375C16.581 9.41375 16.4281 9.36976 16.2981 9.28735C16.1681 9.20494 16.0668 9.08781 16.0069 8.95076C15.9471 8.81372 15.9314 8.66292 15.9619 8.51743C15.9924 8.37194 16.0677 8.23831 16.1783 8.13342C16.2889 8.02853 16.4298 7.9571 16.5831 7.92816C16.7365 7.89922 16.8955 7.91407 17.0399 7.97084C17.1844 8.0276 17.3079 8.12373 17.3948 8.24707C17.4816 8.37041 17.528 8.51541 17.528 8.66375C17.528 8.86266 17.4447 9.05343 17.2964 9.19408C17.1482 9.33473 16.9471 9.41375 16.7374 9.41375ZM15.417 12C15.417 12.4121 15.2882 12.815 15.0468 13.1577C14.8055 13.5003 14.4624 13.7674 14.061 13.9251C13.6596 14.0828 13.218 14.1241 12.7918 14.0437C12.3657 13.9633 11.9743 13.7648 11.6671 13.4734C11.3599 13.182 11.1507 12.8107 11.066 12.4065C10.9812 12.0023 11.0247 11.5833 11.191 11.2026C11.3572 10.8218 11.6388 10.4964 12 10.2674C12.3612 10.0385 12.7859 9.91625 13.2204 9.91625C13.803 9.91625 14.3617 10.1358 14.7736 10.5266C15.1856 10.9173 15.417 11.4474 15.417 12ZM13.2204 0C10.7184 0 8.27268 0.703788 6.19239 2.02236C4.11209 3.34094 2.4907 5.21508 1.53325 7.4078C0.575794 9.60051 0.32528 12.0133 0.813386 14.3411C1.30149 16.6689 2.50629 18.807 4.27544 20.4853C6.04458 22.1635 8.29861 23.3064 10.7525 23.7694C13.2064 24.2324 15.7499 23.9948 18.0614 23.0865C20.3729 22.1783 22.3485 20.6402 23.7385 18.6668C25.1285 16.6935 25.8705 14.3734 25.8705 12C25.8705 8.8174 24.5377 5.76515 22.1653 3.51472C19.793 1.26428 16.5754 0 13.2204 0V0ZM19.7694 14.5762C19.7583 15.0949 19.6545 15.608 19.4624 16.0937C19.2932 16.5088 19.0344 16.8858 18.7026 17.2005C18.3709 17.5152 17.9735 17.7607 17.5359 17.9212C17.0243 18.1033 16.4838 18.2018 15.9375 18.2125C15.2339 18.2425 15.0098 18.25 13.2204 18.25C11.4309 18.25 11.2069 18.2425 10.5033 18.2125C9.95694 18.2018 9.41649 18.1033 8.90487 17.9212C8.46728 17.7607 8.06988 17.5152 7.73813 17.2005C7.40638 16.8858 7.1476 16.5088 6.97837 16.0937C6.78646 15.6084 6.68265 15.0957 6.67134 14.5775C6.63972 13.91 6.63181 13.6975 6.63181 12C6.63181 10.3025 6.63972 10.09 6.67134 9.4225C6.68222 8.90433 6.78559 8.39165 6.97705 7.90625C7.14627 7.4908 7.40519 7.1135 7.73718 6.79856C8.06917 6.48363 8.46691 6.23802 8.90487 6.0775C9.41657 5.89588 9.95702 5.79782 10.5033 5.7875C11.2069 5.7575 11.4309 5.75 13.2204 5.75C15.0098 5.75 15.2339 5.7575 15.9375 5.7875C16.4838 5.79782 17.0242 5.89588 17.5359 6.0775C17.9736 6.23817 18.3711 6.48384 18.7029 6.79877C19.0346 7.1137 19.2933 7.49092 19.4624 7.90625C19.6543 8.39158 19.7581 8.90426 19.7694 9.4225C19.8011 10.09 19.809 10.3025 19.809 12C19.809 13.6975 19.8011 13.91 19.7694 14.5775V14.5762Z" fill="#EDA440"/>
</svg>
